<svg width="95" height="95" viewBox="0 0 95 95" fill="none" xmlns="http://www.w3.org/2000/svg">
<path d="M47.4137 93.3958C72.8251 93.3958 93.4251 72.7959 93.4251 47.3845C93.4251 21.9731 72.8251 1.37305 47.4137 1.37305C22.0024 1.37305 1.40234 21.9731 1.40234 47.3845C1.40234 72.7959 22.0024 93.3958 47.4137 93.3958Z" fill="#04955F" stroke="#E9EBEE" stroke-width="1.5" stroke-miterlimit="10"/>
<path d="M23.4086 30.827C14.5149 39.9694 12.5806 50.1973 18.3208 55.6782C19.3679 56.7184 20.6933 57.5481 22.2345 58.1569C24.4557 59.0614 27.0075 59.4615 29.7436 59.4006C33.6765 59.3588 38.072 58.423 42.424 56.5253C49.0495 53.6344 53.986 49.2719 56.3395 44.7737C57.5379 43.0343 58.799 37.3342 55.889 34.7424C55.5741 34.4606 55.2454 34.2049 54.9149 33.9562C54.6227 34.6346 53.205 37.6212 52.5267 39.1623C48.5173 39.6198 41.4917 34.2467 42.8537 33.6414C44.6557 32.8395 46.7552 31.8915 48.3259 31.2009C37.0753 29.011 24.0017 39.1971 20.0637 43.5387C23.1546 33.0778 49.1922 15.5652 63.8904 18.9919C65.3793 17.9134 67.9919 16.5393 71.5508 16.995C71.2551 18.3379 70.448 20.3399 69.4704 21.7854C72.0552 24.4554 71.3316 29.1797 68.3955 34.532C65.4158 40.5556 60.3558 46.8349 53.6816 52.2637C38.6477 64.4815 21.1056 67.7429 14.4958 59.5502C14.2922 59.298 14.1009 59.0353 13.92 58.7674C9.18702 52.4168 12.1632 41.2235 21.8518 31.2688C24.1844 28.8684 26.7361 26.715 29.4044 24.8468C33.6747 21.8272 39.0304 18.851 45.3759 16.9828L44.7288 17.4021C44.2783 17.5777 43.619 17.8456 42.8032 18.197C41.1699 18.9032 38.9017 19.9538 36.3569 21.3523C34.3131 22.4777 32.0797 23.8484 29.8671 25.4173C27.5711 26.9846 25.3898 28.7971 23.4086 30.8287" fill="#008151"/>
<path d="M19.8097 76.9291C19.8584 76.8526 19.9054 76.6804 19.9054 76.6039L19.9141 71.1281C19.9141 70.8411 19.8567 70.7455 19.5401 70.3906H23.1877V71.7213C22.9476 71.3282 22.7563 71.1855 22.4415 71.1855H20.9282V73.205H22.565V74.2869C22.3441 73.9895 22.1058 73.8938 21.57 73.8938H20.909V76.4786C21.4743 76.5656 21.6744 76.5847 22.0762 76.5847C22.2293 76.5847 22.3736 76.5847 22.5163 76.576C23.2242 76.5186 23.5112 76.4038 24.0957 75.9638L23.6451 77.2944H19.4531C19.6636 77.1414 19.7401 77.0544 19.808 76.9309" fill="#E9EBEE"/>
<path d="M30.5498 71.6256C30.4541 71.5577 30.3671 71.5003 30.2906 71.4534C29.8888 71.1942 29.4679 71.0898 28.8451 71.0898C27.1127 71.0898 25.9646 72.1718 25.9646 73.8086C25.9646 75.4454 27.2275 76.6699 29.0278 76.6699C29.3635 76.6699 29.6783 76.6125 30.2628 76.4403V74.44C30.2628 74.3547 30.2332 74.2017 30.1862 74.0956C30.148 73.9912 30.061 73.8938 29.8888 73.732H31.3238V77.1691C31.1134 77.2178 30.9412 77.2648 30.8351 77.2839C30.1932 77.4074 29.6001 77.4666 29.026 77.4666C28.2311 77.4666 27.5614 77.3518 27.0066 77.1222C25.7437 76.5569 24.9297 75.3219 24.9297 73.9338C24.9297 72.7179 25.5141 71.6082 26.5195 70.9281C27.2379 70.4306 28.0033 70.2393 29.2278 70.2393C29.7444 70.2393 29.9549 70.2688 30.548 70.4115V71.6273L30.5498 71.6256Z" fill="#E9EBEE"/>
<path d="M32.813 70.3906L34.7369 73.4155L36.2971 71.1281C36.365 71.0429 36.3928 70.9177 36.3928 70.8307C36.3928 70.7055 36.3076 70.6011 36.0762 70.3906H37.7809L35.1282 74.2191V76.6039C35.1282 76.8717 35.243 77.0544 35.5787 77.2927H33.6445C33.855 77.1396 33.9419 77.0526 33.9889 76.9291C34.0185 76.8804 34.0376 76.8056 34.0654 76.7378C34.0846 76.6526 34.0933 76.6126 34.0933 76.6039L34.1124 74.2017L32.0355 71.1281C31.9972 71.0899 31.9677 71.0516 31.9207 70.9942C31.7294 70.7924 31.6998 70.7646 31.4702 70.6115C31.4024 70.5628 31.298 70.4967 31.1641 70.3906H32.8113H32.813Z" fill="#E9EBEE"/>
<path d="M38.1786 76.9284C38.2168 76.8518 38.2638 76.6796 38.2638 76.6031L38.2742 71.1274V70.9934C38.2742 70.9256 38.2447 70.8595 38.2064 70.783C38.1577 70.6682 38.0812 70.5812 37.9003 70.3916H39.8623C41.48 70.3916 42.3984 71.023 42.3984 72.1432C42.3984 73.1869 41.3652 73.9713 39.9963 73.9713C39.7945 73.9713 39.6988 73.9609 39.4605 73.8757C40.0537 73.7991 40.2937 73.7226 40.5807 73.5591C41.0591 73.2808 41.3461 72.8216 41.3461 72.3154C41.3461 71.5779 40.7338 71.0526 39.8815 71.0526C39.7962 71.0526 39.671 71.0526 39.4988 71.0613C39.4605 71.0717 39.384 71.0717 39.3075 71.0804V76.6031C39.3075 76.6883 39.337 76.8327 39.384 76.9388C39.4414 77.0536 39.5179 77.1493 39.7284 77.2937H37.8516C38.0429 77.1406 38.1194 77.0536 38.1768 76.9301" fill="#E9EBEE"/>
<path d="M43.118 70.3906H48.3067L47.8753 71.77C47.7988 71.6361 47.7118 71.5491 47.6648 71.5021C47.4544 71.3108 47.0526 71.2047 46.5359 71.2047C46.3916 71.2047 46.2768 71.2134 46.0089 71.2429V76.6039C46.0089 76.623 46.0193 76.6717 46.0385 76.7378C46.0576 76.8056 46.0767 76.8717 46.1063 76.9291C46.1637 77.0439 46.2698 77.1396 46.4803 77.2927H44.5565C44.7582 77.1396 44.8348 77.0439 44.8817 76.9291C44.9009 76.8909 44.9304 76.8143 44.9496 76.7378C44.96 76.67 44.9687 76.6317 44.9687 76.6039V71.2516C44.6434 71.2238 44.5095 71.2238 44.3756 71.2238C44.1842 71.2238 44.0207 71.2429 43.859 71.2516C43.3998 71.2899 43.1701 71.3769 42.7109 71.683L43.1232 70.3906H43.118Z" fill="#E9EBEE"/>
<path d="M52.4911 76.9284C52.5293 76.8518 52.5763 76.6796 52.5763 76.6031L52.5867 71.1274V70.9934C52.5867 70.9256 52.5572 70.8595 52.5189 70.783C52.4702 70.6682 52.3937 70.5812 52.2128 70.3916H54.1748C55.7925 70.3916 56.7109 71.023 56.7109 72.1432C56.7109 73.1869 55.6777 73.9713 54.3088 73.9713C54.107 73.9713 54.0113 73.9609 53.773 73.8757C54.3662 73.7991 54.6062 73.7226 54.8932 73.5591C55.3716 73.2808 55.6586 72.8216 55.6586 72.3154C55.6586 71.5779 55.0463 71.0526 54.194 71.0526C54.1087 71.0526 53.9835 71.0526 53.8113 71.0613C53.773 71.0717 53.6965 71.0717 53.62 71.0804V76.6031C53.62 76.6883 53.6495 76.8327 53.6965 76.9388C53.7539 77.0536 53.8304 77.1493 54.0409 77.2937H52.1641C52.3554 77.1406 52.4319 77.0536 52.4893 76.9301" fill="#E9EBEE"/>
<path d="M61.1429 70.2373C63.2876 70.2373 64.7418 71.7019 64.7418 73.8466C64.7418 75.9913 63.3154 77.4646 61.1237 77.4646C58.9321 77.4646 57.457 75.9705 57.457 73.7979C57.457 71.6254 58.9703 70.2373 61.1429 70.2373ZM58.5303 73.8745C58.5981 75.5408 59.7653 76.7741 61.2768 76.7741C62.684 76.7741 63.6981 75.6069 63.6981 73.998C63.6981 72.3038 62.5501 70.9922 61.0646 70.9922C59.5791 70.9922 58.5285 72.0933 58.5285 73.7492V73.8745H58.5303Z" fill="#E9EBEE"/>
<path d="M66.6358 76.3933C67.0185 76.5168 67.4011 76.5759 67.669 76.5759C68.4831 76.5759 69.1058 76.1167 69.1058 75.5132C69.1058 75.3027 68.9997 75.0244 68.8849 74.9009C68.7214 74.7478 68.3004 74.4991 67.9473 74.3651L67.0185 74.0016C66.1279 73.6659 65.6217 73.0345 65.6217 72.2691C65.6217 71.1107 66.6654 70.3262 68.2256 70.3262C68.6761 70.3262 69.0292 70.3749 69.5267 70.5088V71.7247C68.9144 71.255 68.5979 71.1211 68.043 71.1211C67.2289 71.1211 66.6828 71.5229 66.6828 72.1352C66.6828 72.5666 67.008 72.8814 67.7542 73.1893L68.6153 73.5441C69.7442 73.9946 70.1947 74.5008 70.1947 75.334C70.1947 76.5881 69.0658 77.4491 67.4081 77.4491C67.1872 77.4491 66.9489 77.43 66.7001 77.4004C66.3366 77.343 66.2114 77.3152 65.8861 77.19L65.5312 75.8889C65.9818 76.1672 66.154 76.2524 66.6323 76.3968" fill="#E9EBEE"/>
<path d="M70.1219 70.3906H75.3106L74.8792 71.77C74.8027 71.6361 74.7157 71.5491 74.6687 71.5021C74.4583 71.3108 74.0565 71.2047 73.5398 71.2047C73.3955 71.2047 73.2807 71.2134 73.0128 71.2429V76.6039C73.0128 76.623 73.0232 76.6717 73.0424 76.7378C73.0615 76.8056 73.0806 76.8717 73.1102 76.9291C73.1676 77.0439 73.2737 77.1396 73.4842 77.2927H71.5604C71.7622 77.1396 71.8387 77.0439 71.8856 76.9291C71.9048 76.8909 71.9344 76.8143 71.9535 76.7378C71.9639 76.67 71.9726 76.6317 71.9726 76.6039V71.2516C71.6473 71.2238 71.5134 71.2238 71.3795 71.2238C71.1881 71.2238 71.0246 71.2429 70.8629 71.2516C70.4037 71.2899 70.1741 71.3769 69.7148 71.683L70.1271 70.3906H70.1219Z" fill="#E9EBEE"/>
<path d="M56.1602 63.3399L57.1342 64.1244L57.8596 63.2043L56.8907 62.4424L56.1602 63.3399Z" fill="#E9EBEE"/>
<path d="M67.5117 63.0235L68.4875 63.8097L69.2129 62.8896L68.2423 62.126L67.5117 63.0235Z" fill="#E9EBEE"/>
<path d="M55.2536 62.4424L54.5195 63.3399L55.4936 64.1244L56.219 63.2043L55.2536 62.4424Z" fill="#E9EBEE"/>
<path d="M64.6507 58.5537C64.722 58.2215 64.7689 57.6301 63.8801 56.3916L63.5618 57.5135C63.5618 57.5135 63.7027 57.7275 63.8314 57.9762C63.9566 58.2128 64.0888 58.4998 64.1445 58.7451C63.9323 58.959 62.9286 59.7087 61.504 60.0392C59.9612 60.3975 55.5343 61.2411 54.1097 59.2043C53.9027 58.8894 53.5514 57.3013 53.4592 56.609C53.367 55.9237 52.92 53.6068 51.8311 52.29C51.7024 53.0223 51.6415 53.7216 51.6502 53.7459C51.6536 53.7494 52.906 56.7378 53.0765 58.3154C52.8834 58.8251 51.6084 60.6063 48.8132 61.7108C48.4253 61.8412 47.5399 61.6308 47.6721 60.7471C47.7469 60.2618 47.8652 59.8583 47.9765 59.5522C48.0878 59.2478 48.1974 59.0321 48.2409 58.9416C48.2722 58.8564 48.3209 58.7346 48.347 58.6198C48.3766 58.505 48.3922 58.3554 48.2131 58.2319C48.1504 58.2632 48.1035 58.2946 48.0217 58.378L47.9504 58.6076C47.9104 58.7277 47.8565 58.8842 47.7869 59.0182C47.6495 59.2912 47.0494 60.6254 47.2912 61.5942C47.5347 62.584 48.3226 63.0136 49.4133 62.577C50.4604 62.1613 52.7025 60.6967 53.4053 59.1643L53.4887 59.3904C53.6262 59.7452 53.8505 60.1749 54.1741 60.4341C54.3289 60.5576 54.4959 60.695 54.6959 60.8289C54.8994 60.9663 55.1412 61.1003 55.4386 61.2151C56.0353 61.4429 56.8545 61.5856 58.0826 61.5177C60.5178 61.3768 62.8921 60.9959 64.3741 59.5852C64.5324 58.999 64.5985 58.8599 64.6611 58.552" fill="#E9EBEE"/>
<path d="M75.7619 53.4762C75.661 53.0796 74.8818 50.7714 74.6209 50.3018L74.0625 51.3071C74.0625 51.3071 74.1825 51.5246 74.1825 51.6742C74.1825 51.8498 74.7739 58.9728 74.7739 59.9712C74.7739 60.9697 74.6817 62.3334 74.633 63.0726C74.9113 62.643 75.5532 61.6428 75.4993 60.2078C75.4419 58.8006 75.221 54.4103 75.1723 53.4379L75.3305 53.5962C75.3827 53.6502 75.4245 53.6971 75.4558 53.7476C75.4958 53.8102 75.6071 53.885 75.6906 53.8711C75.788 53.8537 75.8315 53.7389 75.7619 53.4745" fill="#E9EBEE"/>
<path d="M71.9139 50.3018L71.3573 51.3071C71.3573 51.3071 71.4773 51.5246 71.4773 51.6742C71.4773 51.8412 72.0079 58.3658 72.0079 59.9243C71.9678 59.966 71.907 60.0234 71.8217 60.0808C71.6269 60.213 71.3034 60.3626 70.7816 60.427C69.7883 60.5487 69.4561 59.8999 69.3848 59.1607C69.3483 58.778 69.3048 58.2979 69.23 57.8822C69.1604 57.4734 69.0543 57.0855 68.8838 56.9255C68.7516 56.8351 68.5447 56.8803 68.4542 57.1899C68.4316 57.263 68.4142 57.3638 68.3968 57.4769L68.3516 57.8196C68.322 58.0614 68.2977 58.2492 68.275 58.2962C68.2263 58.3936 68.0907 58.6162 67.2001 58.8458C67.0192 58.8876 66.6869 58.9119 65.9964 57.5934C65.732 58.3049 65.6659 58.491 65.6816 58.5258C65.6868 58.538 66.4365 60.3383 66.4365 60.7818C66.3338 60.9871 65.5215 62.563 58.3359 64.6886C58.9865 64.7251 62.1209 64.4642 62.1209 64.4642C62.1209 64.4642 63.0672 64.1041 64.0795 63.6084C65.0797 63.1144 66.1982 62.4673 66.5287 61.8829C66.8765 61.0149 67.0018 60.3783 66.9879 59.8791C67.3984 59.9417 68.322 59.8269 68.6386 59.0772C68.6525 58.8511 68.6838 58.5588 68.7099 58.3327C68.776 58.5275 68.816 58.7119 68.8334 58.9624C68.8473 59.1607 68.8699 59.5451 68.943 59.9365C69.0126 60.3244 69.1291 60.7401 69.3483 60.9766C69.7779 61.4498 70.9746 61.7646 72.1731 60.8097L72.2844 60.6705C72.3418 60.5835 72.4218 60.4548 72.4966 60.2983C72.648 59.9852 72.801 59.552 72.7802 59.0754C72.6915 57.2021 72.4984 54.252 72.474 53.4432L72.6323 53.6015C72.6845 53.6554 72.7245 53.7023 72.7576 53.7528C72.7976 53.8154 72.9071 53.8902 72.9924 53.8763C73.0898 53.8589 73.1333 53.7441 73.0637 53.4797C72.9611 53.0831 72.1835 50.7749 71.9191 50.3052" fill="#E9EBEE"/>
<path d="M67.4132 52.1143L58.0481 55.2191L57.6289 56.0767C57.6289 56.0767 65.0493 53.4345 66.7383 52.9561C66.8844 52.7544 67.4115 52.1143 67.4115 52.1143" fill="#E9EBEE"/>
<path d="M69.0226 56.3112C69.4592 56.6365 69.694 56.1912 69.7706 55.5945C69.7845 55.518 69.788 55.471 69.7827 55.4362C69.774 55.4015 69.7601 55.3823 69.6331 55.4519L69.567 55.6171C69.5444 55.6711 69.5218 55.7233 69.4923 55.7633C69.4383 55.8363 69.3722 55.8728 69.254 55.8067C68.9356 55.6311 69.1165 54.817 69.2887 54.2204C69.4557 53.6499 69.6331 53.2028 69.6366 53.1506C69.6366 53.1315 69.6314 53.0845 69.487 53.0967C69.4575 53.1228 69.4348 53.1663 69.4122 53.2202C69.3722 53.3263 69.1165 53.9595 68.9913 54.4656C68.8713 54.9562 68.633 56.0207 69.0226 56.3129" fill="#E9EBEE"/>
<path d="M55.2614 52.4916C55.4162 52.7264 55.8441 53.4831 55.8772 53.4605C55.9433 53.417 55.9885 53.3491 56.0581 53.1856L56.3225 52.1141C56.3434 52.0237 56.4008 51.9524 56.4634 51.9576C56.5347 51.968 56.6895 52.215 56.7278 52.2794L56.8652 52.0759C56.9156 51.9906 56.98 51.8863 56.9974 51.7889C56.5156 51.0548 56.2373 51.5523 56.1712 51.7384C56.1103 51.9054 55.9937 52.3246 55.905 52.7125C55.5328 51.9019 54.9814 51.5332 54.9414 51.5036C54.9414 51.5036 54.8788 51.6358 54.8405 51.7697C54.804 51.9019 54.7709 52.0794 54.8005 52.2516C54.8527 52.5821 55.1501 52.5316 55.2614 52.4899" fill="#E9EBEE"/>
<path d="M25.1815 61.5748C25.8373 61.2582 26.8983 60.5694 27.1679 59.691C27.4323 58.8317 27.2741 58.5204 26.987 58.3238C26.8444 58.2212 26.4426 58.1986 26.0582 58.1864C25.6564 58.1742 25.2215 58.1777 24.9571 58.1568C24.4875 58.1151 24.2266 57.9464 24.0405 57.715C24.1605 57.4332 24.8841 56.3565 25.5659 55.9878C25.8669 55.826 26.0651 55.8538 26.18 55.9078C26.2408 55.9356 26.2826 55.9704 26.3121 55.9999L26.4496 56.1826C26.4496 56.1826 26.6705 55.572 26.7418 55.1668C26.5644 54.765 26.2113 54.7476 25.9156 54.8345C25.6251 54.9198 25.3589 55.1111 25.2789 55.172C24.364 55.8991 23.4786 56.9914 23.4838 58.1968C23.4838 58.8178 24.1205 59.0753 24.7223 59.1866C25.3363 59.2996 25.9973 59.2736 26.1904 59.2736C26.46 59.2736 26.6113 59.3188 26.7087 59.3588C26.5 59.6301 25.9399 60.1955 23.7134 61.1034C21.2852 62.0966 20.0537 61.013 19.6362 60.0719C19.4292 59.6075 19.4849 58.9309 19.6014 58.3395C19.7162 57.7516 19.8936 57.2697 19.9163 57.2071C19.9684 57.0575 19.9476 56.9514 19.8154 56.9114C19.7441 56.8923 19.6832 56.9253 19.5997 56.9932C19.5997 56.9932 19.3022 57.8037 19.2675 57.9429C18.4882 60.5294 19.337 61.8653 20.8382 62.3593C22.421 62.8829 24.531 61.8792 25.1798 61.5679" fill="#E9EBEE"/>
<path d="M46.9455 58.7432C46.7246 58.3484 46.2828 58.2492 45.9279 58.2475C45.747 58.244 45.58 58.2666 45.3609 58.3084C45.2635 56.4854 45.1034 54.1755 45.0565 53.5614C45.0565 53.5075 45.0652 53.4588 45.1347 53.4275C45.2461 53.5423 45.3261 53.6484 45.3957 53.7493C45.4357 53.8102 45.5453 53.8867 45.6305 53.8728C45.7279 53.8554 45.7714 53.7406 45.7018 53.4762C45.5992 53.0779 44.8008 50.7714 44.5399 50.3018L43.9832 51.3071C43.9832 51.3071 44.1015 51.5298 44.1015 51.6776C44.2302 52.81 44.3972 55.0991 44.5973 58.5345C44.2476 58.6441 43.5484 58.8824 43.1292 59.058C43.1744 58.8371 43.2353 58.4545 43.2544 58.157C43.2857 57.6978 42.63 56.6002 41.6889 56.4332C40.7949 56.275 39.9512 57.1551 39.3459 58.0161C39.0398 58.4527 38.7841 58.8998 38.6032 59.2442L38.351 59.7486C38.1996 59.6564 38.1127 59.5451 38.064 59.4459C38.0344 59.3868 38.0153 59.3294 38.0031 59.279L37.9805 59.1433C37.9753 59.0946 37.9944 59.0093 38.0344 58.9085C38.0692 58.8111 38.1179 58.7189 38.1405 58.6667C38.1753 58.5901 38.1666 58.524 38.1144 58.4319C38.0344 58.371 37.9231 58.4266 37.8935 58.4579C37.3508 59.1207 35.5644 59.7851 33.2197 59.7573C32.049 59.7434 31.3185 59.5938 30.8192 59.3955C30.5722 59.2981 30.3774 59.1868 30.2174 59.0737C30.0522 58.9572 29.92 58.8389 29.7895 58.731C29.2938 58.3031 28.9459 57.2751 28.8728 57.0473C28.8728 57.0473 28.5458 57.8874 28.4658 58.2005C29.0537 59.4703 29.2224 60.4461 29.2259 60.587C28.3997 61.6324 26.3559 62.5647 24.4912 63.2327C23.5589 63.5684 22.6787 63.8363 22.0334 64.0293L21.2628 64.2659C21.1793 64.2937 21.1045 64.3163 21.0506 64.3424C20.9984 64.365 20.948 64.3981 20.9584 64.4746C20.9584 64.4746 24.3973 64.2102 24.8669 64.2015C27.8205 63.3162 29.1859 61.8481 29.2485 61.7611C29.3094 61.6776 29.3929 61.5211 29.5842 60.9488C29.6521 60.7453 29.7008 60.6044 29.7356 60.4461C29.7617 60.3174 29.7791 60.18 29.7878 59.9852C30.774 60.554 32.6404 60.9036 33.985 60.7731C35.9036 60.5853 36.9699 60.0774 37.4778 59.7503C37.5004 60.1034 37.5961 60.3296 37.7091 60.4826C37.7717 60.5696 37.8431 60.6305 37.9926 60.7349C37.9126 60.9679 37.85 61.3419 37.8726 61.448C37.8952 61.5593 37.9787 61.582 38.0483 61.5593C38.1057 61.5454 38.1718 61.4933 38.1805 61.4463C38.1857 61.4132 38.2692 61.1471 38.3614 60.9036C39.0815 61.1193 40.0765 60.9662 40.9827 60.7279C41.9203 60.4809 42.783 60.1382 43.1848 59.9904C43.8754 59.7347 44.4059 59.5694 44.6564 59.4964C44.7051 59.759 44.8773 60.3887 45.3991 60.5957C45.9871 60.827 46.2654 60.6357 46.4028 60.5244C46.6376 60.3348 46.8237 59.8356 46.9455 59.3694C46.9994 59.1659 47.0081 59.025 46.9959 58.9241C46.9925 58.8719 46.982 58.8267 46.9455 58.738M38.7667 59.9382C39.0154 59.4442 40.1078 57.4386 41.2836 57.456C42.0716 57.4682 42.5099 58.4962 42.6404 58.8493C42.2334 59.1172 40.3896 60.1574 38.7667 59.9382ZM45.6218 59.4755C45.5505 59.4059 45.5035 59.3398 45.4635 59.272L45.5209 59.265C45.6235 59.2563 45.7783 59.2616 45.9888 59.3259C46.2549 59.4077 46.2932 59.6199 46.2932 59.7329C45.9662 59.7364 45.754 59.6077 45.6218 59.4755Z" fill="#E9EBEE"/>
<path d="M48.9828 58.3255C49.002 58.8108 49.0402 59.3204 49.0524 59.7936C49.0611 60.2649 49.0385 60.6963 49.0889 61.0912C49.3725 60.6563 49.8091 59.964 49.7516 58.5325C49.6977 57.1235 49.5186 54.4326 49.4768 53.5612C49.4768 53.5038 49.4855 53.462 49.5377 53.4394L49.696 53.5977C49.7482 53.6516 49.7899 53.6986 49.8212 53.749C49.8647 53.8117 49.9726 53.8864 50.0595 53.8725C50.1569 53.8551 50.1969 53.7403 50.1308 53.4759C50.0282 53.0794 49.2194 50.8581 49.0002 50.2754L48.4297 51.3051C48.4297 51.3051 48.548 51.5226 48.548 51.6722C48.548 51.8478 48.9463 57.3253 48.9846 58.3255" fill="#E9EBEE"/>
<path d="M41.4215 63.3731C41.3728 63.4392 41.3154 63.5262 41.2667 63.6149C41.1988 63.7471 41.3067 63.7767 41.4754 63.7558L41.5276 63.7436L44.8534 62.493C44.8534 62.493 44.9908 62.2494 45.1021 61.9746C42.0859 63.0374 41.5102 63.2531 41.4197 63.3749" fill="#E9EBEE"/>
<path d="M37.5574 54.9233C37.8218 54.8607 38.107 54.6745 38.3523 54.4884C38.5958 54.3023 38.7993 54.111 38.9054 54.0292C39.1002 53.8761 39.2064 53.9335 39.4325 54.1614C39.5351 54.2153 39.6899 54.2362 39.9352 54.1614C40.4257 54.0101 40.624 53.6083 40.664 53.3039C40.704 52.989 40.4257 52.7386 40.1196 52.9508C39.9682 53.0534 39.7612 53.3265 39.4916 53.45C39.4429 53.4013 39.3768 53.3769 39.2568 53.3856C39.1055 53.3978 38.9333 53.5143 38.7576 53.6605C38.5819 53.8048 38.394 53.984 38.201 54.1388C37.82 54.4467 37.006 54.8572 36.9416 54.8781C36.9051 54.8902 36.8651 54.9146 36.832 55.0503C36.886 55.0729 37.0529 55.045 37.5574 54.9233ZM40.123 53.3856C40.2813 53.2534 40.3839 53.3439 40.3439 53.4308C40.2865 53.4709 40.203 53.5161 40.1091 53.5578C40.0065 53.6013 39.9352 53.6274 39.8795 53.6378C39.9421 53.5613 40.0291 53.4639 40.123 53.3856Z" fill="#E9EBEE"/>
<path d="M40.3472 53.4311C40.3872 53.3459 40.2846 53.2554 40.1263 53.3859C40.0307 53.4641 39.9454 53.5616 39.8828 53.6381C39.9367 53.6276 40.0081 53.6016 40.1124 53.5581C40.2081 53.5146 40.2898 53.4711 40.3472 53.4311Z" fill="#E9EBEE"/>
<path d="M31.2714 62.0378L31.2001 62.1752L31.1253 62.3804C31.1287 62.4083 31.1427 62.4326 31.2453 62.4187C31.2453 62.4187 31.2888 62.3491 31.374 62.2447C31.4001 62.2117 31.4366 62.2117 31.5288 62.2604C31.4279 62.2952 31.3114 62.37 31.2592 62.41C31.1827 62.4883 31.0835 62.7631 31.1044 62.9005C31.127 63.024 31.2853 64.1877 31.3827 64.4138C31.4836 64.2712 31.5027 64.0677 31.4975 63.8885C31.4923 63.7111 31.4592 63.5511 31.4523 63.5006C31.4384 63.4049 31.3688 62.9249 31.3288 62.6726C31.5323 62.4813 31.8593 62.5596 31.8941 62.5665L32.0089 62.2291C31.8976 62.1769 31.8367 62.1108 31.5879 61.9021C31.4018 61.8534 31.2922 62.0064 31.2731 62.0343" fill="#E9EBEE"/>
<path d="M29.0392 52.4914C29.194 52.7262 29.6237 53.4829 29.6584 53.4602C29.7245 53.4168 29.768 53.3489 29.8393 53.1854L30.1037 52.1139C30.1229 52.0235 30.1803 51.9522 30.2411 51.9574C30.3159 51.9678 30.4708 52.2148 30.5055 52.2792L30.6464 52.0757C30.6986 51.9904 30.7612 51.8861 30.7752 51.7887C30.2968 51.0529 30.0185 51.5521 29.9524 51.7382C29.8915 51.9052 29.775 52.3244 29.6828 52.7123C29.3106 51.9017 28.7626 51.533 28.7226 51.5034C28.7226 51.5034 28.66 51.6356 28.6217 51.7695C28.5852 51.9017 28.5522 52.0791 28.5817 52.2513C28.6339 52.5818 28.9314 52.5314 29.0409 52.4896" fill="#E9EBEE"/>
<path d="M20.1175 56.0569C20.6706 56.4691 20.975 55.9143 21.0759 55.128C21.1107 54.9419 21.0968 54.8758 20.9211 54.9506L20.8359 55.1646C20.8046 55.2359 20.7733 55.3037 20.735 55.3576C20.6602 55.4603 20.568 55.5072 20.408 55.4185C19.9836 55.1837 20.2271 54.107 20.4515 53.3347C20.6689 52.5885 20.8985 52.0058 20.8985 52.0058C20.8985 52.0058 20.9037 51.9727 20.8446 51.844C20.8011 51.8283 20.7611 51.844 20.728 51.877C20.6933 51.9118 20.6619 51.964 20.6324 52.0353C20.5785 52.1745 20.2445 52.999 20.0827 53.6617C19.9227 54.3036 19.6183 55.6864 20.1192 56.0586" fill="#E9EBEE"/>
<path d="M75.6208 67.209H19.1484V67.7395H75.6208V67.209Z" fill="#E9EBEE"/>
<path d="M35.2566 23.7837C29.3355 29.8683 28.0501 36.6764 31.8699 40.324C32.5657 41.0163 33.4493 41.5677 34.4756 41.973C35.9541 42.5748 37.6518 42.8409 39.4729 42.8009C42.0908 42.7731 45.0165 42.1504 47.9127 40.8875C52.3221 38.962 55.6079 36.0589 57.1751 33.0653C57.9718 31.9069 58.8119 28.1132 56.8742 26.3894C56.6637 26.2015 56.4463 26.0311 56.2254 25.8658C56.0306 26.3181 55.0878 28.3045 54.6355 29.3308C51.9673 29.6352 47.2899 26.0589 48.1962 25.6554C49.3946 25.1214 50.7931 24.4917 51.8385 24.0307C44.3503 22.5731 35.6479 29.3534 33.0266 32.2426C35.0844 25.2796 52.4143 13.6237 62.1986 15.9041C63.1901 15.1857 64.9278 14.2725 67.2969 14.5752C67.1003 15.4693 66.5628 16.8017 65.9123 17.7636C67.6326 19.5413 67.1507 22.6862 65.1974 26.2485C63.2144 30.2579 59.8451 34.4377 55.4044 38.0505C45.3974 46.1824 33.7224 48.3532 29.3216 42.9001C29.1859 42.7331 29.059 42.5574 28.9389 42.3782C25.7888 38.1514 27.7701 30.7014 34.2181 24.076C35.7714 22.4792 37.4691 21.0459 39.2451 19.8004C42.0873 17.7914 45.6514 15.8102 49.8765 14.5665L49.4451 14.8448C49.1442 14.9614 48.7058 15.1405 48.1631 15.3736C47.076 15.8432 45.5662 16.5425 43.872 17.4731C42.5117 18.2228 41.0245 19.1342 39.5512 20.1796C38.0223 21.2233 36.5716 22.4287 35.2531 23.782" fill="#E9EBEE"/>
</svg>
