<svg width="132" height="105" viewBox="0 0 132 105" fill="none" xmlns="http://www.w3.org/2000/svg">
<path d="M25.7663 31.393C6.1704 51.5299 1.91619 74.0617 14.5579 86.1336C16.8606 88.4248 19.785 90.2496 23.1815 91.5909C28.0747 93.5828 33.6933 94.4635 39.7206 94.3311C48.3844 94.239 58.0672 92.1781 67.6522 87.9987C82.2454 81.6261 93.1199 72.0181 98.3067 62.1108C100.943 58.2768 103.724 45.7214 97.3108 40.0165C96.6142 39.3948 95.8946 38.8306 95.1635 38.2837C94.5187 39.7805 91.3986 46.3547 89.9019 49.7511C81.0711 50.7585 65.5913 38.9227 68.5905 37.5872C72.5569 35.8199 77.1853 33.7359 80.6451 32.2104C55.8624 27.3863 27.0615 49.826 18.3862 59.3879C25.1964 36.3437 82.5505 -2.23204 114.932 5.31502C118.213 2.93749 123.964 -0.0847891 131.805 0.91688C131.155 3.87583 129.376 8.28548 127.223 11.4689C132.916 17.3523 131.321 27.7605 124.857 39.5502C118.294 52.8195 107.143 66.6528 92.4463 78.6095C59.3279 105.522 20.6888 112.707 6.12435 94.6593C5.67533 94.1066 5.25508 93.5252 4.85787 92.9323C-5.56755 78.9434 0.989358 54.2874 22.3295 32.3601C27.4703 27.0754 33.0888 22.3319 38.9664 18.2101C48.3729 11.5611 60.1684 5.00415 74.1515 0.888099L72.7238 1.80917C71.7279 2.19487 70.2772 2.78782 68.4811 3.55922C64.8832 5.11353 59.8863 7.42773 54.2793 10.5076C49.7775 12.9887 44.8555 16.0052 39.9796 19.465C34.9195 22.9191 30.1183 26.9085 25.7548 31.3872" fill="#E9EBEE"/>
</svg>
