<svg width="250" height="364" viewBox="0 0 250 364" fill="none" xmlns="http://www.w3.org/2000/svg">
<path fill-rule="evenodd" clip-rule="evenodd" d="M0.00580548 313.696V320.661H0C5.67241 328.595 11.237 323.418 17.3463 317.733C22.308 313.117 27.629 308.166 33.6588 309.633C29.2534 315.217 29.2128 327.081 37.1413 327.046C40.5529 327.027 42.5818 324.204 44.6227 321.364C45.7277 319.826 46.8361 318.284 48.1694 317.179C51.0741 314.77 54.876 313.345 58.4715 311.997C65.3943 309.402 71.5516 307.094 69.0647 298.605C69.5548 299.021 70.0397 299.443 70.5245 299.864C73.7659 302.682 77.0072 305.499 81.834 306.731C79.3324 327.406 105.115 323.488 113.752 315.437C112.84 322.205 116.497 325.38 120.136 325.305C123.271 325.238 125.259 322.574 127.322 319.811C128.502 318.23 129.707 316.616 131.164 315.437C134.83 312.474 138.686 311.248 142.184 310.134C144.291 309.464 146.268 308.835 147.997 307.892C149.226 310.236 149.606 313.44 149.973 316.531C150.633 322.098 151.251 327.301 156.703 326.465C159.929 325.97 160.919 322.761 161.948 319.427C163.113 315.652 164.328 311.717 168.892 311.374C173.85 323.045 185.062 317.894 194.332 313.635C195.154 313.257 195.961 312.887 196.746 312.535C197.992 311.979 199.323 311.477 200.639 310.981C205.499 309.149 210.151 307.396 209.516 303.249C200.2 308.13 185.033 311.874 182.822 298.025C187.384 295.343 194.639 294.56 201.396 295.703C194.134 286.381 177.029 291.895 180.5 304.409C181.001 306.208 182.09 307.289 183.255 308.444C184.346 309.525 185.502 310.672 186.305 312.535C182.77 313.423 177.848 314.573 175.277 311.955C177.956 304.431 177.056 295.337 176.162 286.308C175.696 281.608 175.233 276.926 175.277 272.492C175.172 271.863 175.7 271.867 176.228 271.871C176.87 271.876 177.511 271.881 177.018 270.751C176.628 269.783 176.315 268.737 176.003 267.691C175.292 265.31 174.58 262.927 172.955 261.464C171.013 269.102 171.985 278.41 172.997 288.099C173.764 295.439 174.554 302.998 174.116 310.214C173.223 309.712 172.637 308.904 172.052 308.096C171.256 306.997 170.46 305.898 168.892 305.57C164.913 306.874 163.251 310.493 161.589 314.112C160.025 317.52 158.46 320.928 154.962 322.403C151.868 320.853 151.288 316.79 151.479 311.955C164.368 314.208 163.276 300.03 162.35 288.016C162.164 285.606 161.985 283.284 161.927 281.198C163.907 281.038 164.967 279.957 166.027 278.876C167.266 277.612 168.505 276.348 171.214 276.555L171.194 276.308C170.986 273.702 170.779 271.097 170.053 269.009C165.171 268.87 164.91 273.322 167.151 275.974C166.435 276.293 165.864 276.756 165.292 277.219C164.261 278.055 163.229 278.891 161.346 278.877C161.484 278.132 161.457 277.156 161.429 276.154C161.367 273.903 161.301 271.52 163.088 271.331C162.641 270.331 162.353 269.172 162.064 268.013C161.427 265.452 160.79 262.891 158.444 262.044C157.304 269.225 158.048 277.156 158.803 285.206C159.444 292.038 160.093 298.954 159.605 305.57C157.568 306.975 153.052 308.374 151.479 305.57C155.176 301.414 154.294 290.868 149.157 291.06C144.99 291.216 144.514 298.518 145.675 303.829C138.112 305.061 133.477 309.221 128.842 313.383C125.525 316.36 122.209 319.337 117.82 321.242C113.289 317.773 115.563 314.816 117.776 311.937C118.815 310.586 119.84 309.253 120.142 307.892C121.23 303.006 119.81 300.631 118.192 297.925C117.876 297.398 117.553 296.857 117.24 296.283C117.158 295.567 117.65 295.422 118.141 295.277C118.697 295.114 119.252 294.95 118.981 293.962C118.101 293.691 117.422 292.839 116.758 292.007C115.745 290.737 114.769 289.515 113.177 290.479C112.94 295.042 114.376 297.929 115.812 300.817C116.56 302.322 117.309 303.828 117.82 305.57C113.891 314.654 86.0015 324.121 83.5811 309.053C83.0509 305.753 84.1501 304.737 85.3417 303.636C85.9633 303.062 86.61 302.464 87.0636 301.507C89.7455 295.857 88.8995 289.033 87.9952 281.738C87.5979 278.533 87.1894 275.238 87.0636 271.911C87.457 271.513 87.8969 271.565 88.2871 271.611C88.8815 271.68 89.3608 271.736 89.3853 270.17C88.6688 269.169 88.2909 267.831 87.913 266.492C87.3114 264.361 86.7099 262.23 84.7419 261.464C83.336 267.353 83.9923 274.082 84.6788 281.121C85.2365 286.839 85.8141 292.762 85.3224 298.605C79.8921 303.095 73.6341 297.194 68.4937 292.347C67.0353 290.972 65.6669 289.682 64.4329 288.738C61.7066 286.651 59.0631 284.939 56.6096 283.35C52.8317 280.903 49.5046 278.749 47.0202 275.969C49.7621 274.629 52.4882 273.058 55.2564 271.464C62.9835 267.012 71.0384 262.372 80.679 262.038C80.1494 263.483 78.9815 264.724 77.8119 265.967C75.879 268.021 73.9418 270.08 74.8747 273.066C75.8165 271.065 77.2554 269.561 78.6943 268.057C81.2284 265.408 83.7625 262.759 83.5811 257.395C70.8039 257.246 60.868 263.347 51.6333 269.016C49.6841 270.213 47.7662 271.39 45.8593 272.486C42.7063 279.666 47.2121 283.095 52.0943 286.811C52.919 287.439 53.7545 288.074 54.5657 288.738C56.0303 289.934 57.4935 290.991 58.8797 291.991C63.3166 295.193 66.9635 297.825 67.335 302.668C65.0973 304.795 61.9871 305.866 58.5903 307.036C55.2119 308.199 51.55 309.46 48.181 311.955C46.8213 312.962 45.3793 314.67 43.8964 316.426C40.1384 320.879 36.118 325.641 32.5096 320.081C32.9101 316.029 33.3454 312.019 35.4117 309.633C36.5561 309.427 37.1143 309.807 37.6725 310.186C38.1505 310.512 38.6286 310.837 39.4747 310.794C42.4438 306.513 38.6758 303.589 36.0601 301.56L35.9921 301.507C37.3711 300.439 38.2272 298.849 39.0832 297.259C40.1908 295.201 41.2982 293.144 43.5376 292.22C44.3544 292.635 44.532 293.692 44.7096 294.749C44.9219 296.013 45.1343 297.277 46.4397 297.444C47.5484 294.24 47.6412 287.455 44.118 286.997C41.9212 288.489 40.376 290.631 38.831 292.774C36.4042 296.138 33.9778 299.502 29.027 300.346C28.974 300.555 28.918 300.761 28.8621 300.966C28.5451 302.132 28.2295 303.292 28.4466 304.99C25.1422 304.45 20.9993 308.611 16.8172 312.81C12.2723 317.374 7.68095 321.985 4.06878 320.661C0.74469 319.44 1.84681 315.934 2.96437 312.378C3.45086 310.831 3.94027 309.274 4.06878 307.892C2.35463 308.026 1.95554 309.477 1.55628 310.928C1.24577 312.057 0.935157 313.186 0.00580548 313.696ZM150.248 301.166C149.816 301.404 149.383 301.643 149.157 302.088C144.044 299.685 149.726 292.783 151.479 299.186C151.629 300.406 150.939 300.786 150.248 301.166ZM213.262 264.657C212.589 262.433 211.915 260.21 210.091 259.143C209.807 259.828 209.47 260.46 208.931 260.884C208.774 267.975 209.601 275.696 210.416 283.305C211.229 290.889 212.03 298.362 211.833 304.991C211.805 305.964 211.549 306.976 211.296 307.979C210.769 310.072 210.251 312.123 211.833 313.697C215.693 304.36 214.444 291.744 213.269 279.866L213.269 279.866C212.94 276.547 212.617 273.286 212.413 270.171C212.587 269.796 213.083 269.745 213.579 269.695C214.311 269.621 215.043 269.547 214.735 268.43C214.075 267.341 213.668 265.999 213.262 264.657ZM245.046 266.342C244.376 263.795 243.705 261.248 241.434 260.303C241.352 261.383 241.05 262.242 240.273 262.625C240.634 269.002 241.247 275.977 241.864 282.998C242.675 292.214 243.492 301.509 243.755 309.634C243.776 310.286 243.671 311.026 243.565 311.772C243.322 313.485 243.074 315.23 244.336 316.018C247.849 308.227 246.648 297.587 245.476 287.211V287.211C244.876 281.904 244.285 276.665 244.336 271.912C243.909 270.809 244.558 270.78 245.206 270.751C245.855 270.722 246.504 270.693 246.077 269.59C245.64 268.601 245.343 267.471 245.046 266.342ZM122.458 264.367L122.453 264.365C123.282 262.607 122.933 261.017 120.711 260.884C115.742 264.692 105.806 265.44 99.8213 262.045C99.7025 263.414 100.193 264.174 100.684 264.934C101.105 265.584 101.525 266.235 101.563 267.269C102.456 267.483 102.735 267.086 103.014 266.688C103.292 266.291 103.571 265.893 104.465 266.108C108.054 268.263 111.805 266.937 115.36 265.679C117.863 264.794 120.268 263.943 122.453 264.365L122.452 264.367H122.458ZM99.4348 267.382C98.8171 265.189 98.1995 262.996 96.3453 262.045C94.5321 264.268 94.9446 266.854 95.3904 269.648C95.5382 270.575 95.6897 271.525 95.7649 272.492C96.7168 284.751 97.6048 300.8 97.5061 312.536C102.171 306.446 100.901 295.632 99.7 285.407C99.1885 281.052 98.6895 276.804 98.667 273.073C98.5828 272.375 99.2431 272.421 99.9037 272.467C100.7 272.523 101.496 272.578 100.989 271.331C100.241 270.245 99.8381 268.813 99.4348 267.382ZM125.357 262.045C126.994 263.2 127.678 265.308 128.363 267.416L128.363 267.416C128.816 268.814 129.27 270.211 130.001 271.331C130.136 272.199 129.49 272.287 128.845 272.375C128.298 272.45 127.751 272.524 127.679 273.073C127.51 277.452 128.1 282.338 128.69 287.222C129.839 296.733 130.986 306.233 126.518 311.955C126.465 310.168 126.413 308.325 126.36 306.445L126.359 306.428L126.359 306.417L126.359 306.41L126.359 306.406L126.358 306.404C126.035 294.981 125.673 282.167 124.777 271.912C124.693 270.958 124.494 269.993 124.298 269.044C123.749 266.381 123.226 263.847 125.357 262.045ZM146.463 267.089C146.33 265.471 146.197 263.854 145.675 262.625C143.507 262.239 142.774 263.285 142.042 264.331C141.739 264.763 141.436 265.196 141.032 265.527C140.707 266.881 141.285 267.334 141.863 267.787C142.37 268.185 142.876 268.583 142.773 269.59C141.777 270.604 140.434 271.273 139.091 271.942C136.947 273.01 134.802 274.078 134.067 276.555C136.797 276.17 138.521 274.778 140.245 273.387C142.055 271.927 143.864 270.467 146.836 270.17C146.638 269.217 146.551 268.153 146.463 267.089ZM35.4054 267.849C33.0811 267.129 32.6035 268.8 32.0807 270.629C31.6465 272.147 31.1812 273.775 29.6012 274.233C28.8525 271.691 27.8309 269.427 24.9578 269.01C24.6992 268.128 24.954 267.76 25.2087 267.391C25.4286 267.073 25.6485 266.755 25.5382 266.107C28.0185 265.695 28.738 267.041 29.458 268.388C29.6816 268.806 29.9052 269.224 30.1816 269.59C30.3151 266.374 34.7612 262.427 35.4054 267.849ZM11.2844 272.758C11.966 270.267 12.6586 267.736 15.0978 268.43C14.5406 262.277 10.3847 267.814 9.87396 270.171C9.43922 268.484 8.49504 267.295 7.55598 266.112L7.55227 266.108C5.87484 266.363 4.90553 267.333 4.65014 269.01C10.5705 270.536 8.98011 277.194 7.55227 281.199C9.11361 281.547 13.4784 280.334 13.9369 277.716C13.8457 276.701 13.1681 276.273 12.4905 275.844C11.746 275.373 11.0014 274.902 11.0348 273.653C11.1197 273.36 11.2016 273.061 11.2837 272.76L11.2838 272.76L11.2838 272.76L11.2838 272.76L11.2838 272.76L11.2838 272.76L11.2838 272.76L11.2838 272.76L11.2839 272.76L11.2839 272.76L11.2839 272.76L11.2839 272.76L11.2839 272.76L11.2839 272.76L11.2839 272.76L11.284 272.76L11.284 272.76L11.284 272.76L11.284 272.759L11.284 272.759L11.284 272.759L11.284 272.759L11.2841 272.759L11.2841 272.759L11.2841 272.759L11.2841 272.759L11.2841 272.759L11.2841 272.759L11.2841 272.759L11.2842 272.759L11.2842 272.759L11.2842 272.759L11.2842 272.759L11.2842 272.759L11.2842 272.759L11.2842 272.759L11.2843 272.759L11.2843 272.759L11.2843 272.758L11.2843 272.758L11.2843 272.758L11.2843 272.758L11.2844 272.758ZM236.79 265.527C233.437 269.208 228.031 270.829 222.622 272.451C220.738 273.016 218.854 273.581 217.056 274.234C219.942 270.168 225.435 268.707 230.927 267.245C232.923 266.714 234.919 266.183 236.79 265.527ZM190.941 270.171C191.179 267.803 190.343 266.508 188.039 266.688C187.598 267.336 187.283 268.111 186.968 268.885L186.968 268.886L186.968 268.886C186.612 269.762 186.256 270.639 185.717 271.332C185.587 271.096 185.463 270.854 185.34 270.611L185.34 270.61C184.681 269.311 184.024 268.015 182.234 267.849C182.137 267.907 182.038 267.964 181.938 268.02C181.173 268.453 180.406 268.887 180.493 270.171C180.929 270.576 181.405 270.94 181.881 271.304C183.488 272.533 185.096 273.762 185.137 276.556C187.08 276.3 187.343 274.36 187.605 272.422C187.712 271.634 187.819 270.846 188.039 270.171H190.941ZM149.736 270.171C150.662 270.599 150.944 271.496 151.194 272.29C151.509 273.294 151.773 274.133 153.219 273.653C152.963 275.33 151.994 276.3 150.316 276.555C148.923 275.714 148.651 271.68 149.736 270.171ZM200.403 271.367C200.155 270.579 199.906 269.792 198.49 270.17C198.304 272.486 198.461 274.46 199.651 275.394C201.328 275.139 202.297 274.17 202.553 272.492C200.927 273.025 200.665 272.196 200.403 271.367ZM116.071 273.072C114.649 278.615 111.114 282.046 104.463 282.359C104.784 280.661 106.245 280.104 107.706 279.547C109.046 279.037 110.387 278.526 110.847 277.135H103.302C102.379 270.211 111.869 271.569 116.071 273.072ZM232.968 275.772C233.17 274.761 233.374 273.745 232.147 273.653C230.916 275.499 230.504 278.929 232.147 280.618C234.213 280.751 235.183 279.782 235.049 277.716C232.46 278.304 232.713 277.042 232.968 275.772ZM81.8339 274.814C78.461 278.203 73.3236 279.825 68.1868 281.447L68.1866 281.447C66.1191 282.1 64.0517 282.752 62.0995 283.52C65.1773 278.812 73.232 276.888 79.0687 275.494L79.0688 275.494L79.0697 275.494C80.068 275.255 81.0014 275.033 81.8339 274.814ZM222.467 280.832C222.908 280.103 223.35 279.374 223.441 278.296C221.897 276.166 217.283 274.541 217.637 279.457C218.496 280.92 219.883 281.854 221.7 282.359C221.89 281.786 222.179 281.309 222.467 280.832ZM57.4631 276.555C58.0251 276.684 58.3358 277.065 58.6464 277.445C59.1186 278.023 59.5908 278.601 60.9457 278.297C60.6903 279.974 59.721 280.943 58.0435 281.199C57.0104 280.421 56.25 277.838 57.4631 276.555ZM27.2791 288.744C32.5145 289.522 37.5004 285.035 38.8876 280.038C35.2831 277.594 23.8081 278.308 26.1182 283.52C26.7735 283.847 27.8295 283.783 28.9729 283.713C30.6959 283.608 32.6171 283.491 33.6637 284.681C33.2658 284.856 32.8601 285.023 32.4544 285.19C30.393 286.038 28.3315 286.887 27.2791 288.744ZM202.546 278.877C199.137 283.285 191.195 285.369 185.464 286.872C184.51 287.123 183.618 287.357 182.817 287.583C185.769 283.968 190.863 282.495 195.956 281.023C198.215 280.369 200.474 279.716 202.546 278.877ZM149.567 285.554C150.163 286.078 150.759 286.603 152.06 286.422C154.421 280.847 151.239 280.875 147.565 280.907C146.137 280.92 144.634 280.933 143.353 280.618C143.429 281.468 143.101 281.914 142.773 282.359C142.445 282.805 142.117 283.25 142.192 284.1C142.735 284.351 143.143 284.736 143.551 285.12C144.239 285.767 144.926 286.415 146.255 286.422C146.968 286.518 147.105 286.037 147.242 285.557C147.362 285.134 147.483 284.711 147.997 284.681C148.7 284.791 149.133 285.172 149.567 285.554ZM91.1207 281.779C91.9998 282.149 92.0799 282.94 92.1597 283.727C92.2701 284.816 92.3796 285.896 94.6033 285.842C94.5771 285.907 94.5512 285.971 94.5253 286.036C93.9987 287.352 93.4719 288.667 91.1207 288.164C90.0527 285.923 90.7144 283.277 91.1207 281.779ZM10.264 287.679C10.3713 285.355 10.4623 283.382 8.13099 282.359C8.1761 282.906 8.19148 283.539 8.20789 284.213C8.27385 286.926 8.35655 290.326 10.4527 291.646C10.1439 290.285 10.2063 288.931 10.264 287.679ZM80.0945 282.359C81.3714 282.824 82.4104 283.526 82.4162 285.261C82.161 285.666 81.555 285.72 80.949 285.774C79.9558 285.862 78.9625 285.95 79.5141 287.583C76.076 287.139 78.7154 284.001 79.8463 282.657C79.9411 282.544 80.0253 282.444 80.0945 282.359ZM118.833 283.849C118.573 283.273 118.312 282.698 117.233 282.94C115.944 284.658 117.401 287.496 119.555 287.583C119.649 287.164 119.91 286.911 120.171 286.659C120.598 286.245 121.026 285.832 120.715 284.681C119.397 285.095 119.115 284.472 118.833 283.849ZM73.7087 283.521C76.5586 285.117 78.3173 287.816 78.3521 292.227C76.6273 291.995 75.9971 290.668 75.3669 289.342C74.6886 287.914 74.0103 286.486 71.9674 286.423C71.8656 285.234 72.4435 284.728 73.022 284.221C73.2683 284.005 73.5146 283.789 73.7087 283.521ZM203.764 286.857C203.782 285.707 203.801 284.558 202.545 284.681C201.639 286.01 201.639 290.317 202.545 291.646C205.084 292.063 205.554 290.409 206.023 288.761L206.027 288.744C203.719 289.667 203.741 288.262 203.764 286.857ZM17.4181 285.262C17.8344 285.122 18.3064 285.371 18.7537 285.607C19.4166 285.956 20.0257 286.277 20.3202 285.262C21.9048 286.51 20.21 289.366 17.9986 288.745C17.3311 288.06 17.3427 286.69 17.4181 285.262ZM134.782 286.715C134.421 285.966 134.061 285.216 132.904 285.262C132.922 285.701 132.909 286.171 132.896 286.64C132.858 287.961 132.821 289.28 133.484 289.905C135.144 290.021 136.653 289.975 136.386 288.164C135.443 288.089 135.112 287.402 134.782 286.715ZM239.693 285.842V288.164C239.199 288.688 238.788 288.549 238.361 288.404C237.899 288.247 237.418 288.084 236.791 288.744C236.75 291.414 235.995 293.364 235.049 295.129C234.094 294.574 233.664 293.496 233.234 292.417C232.616 290.869 231.998 289.321 229.825 289.325C229.492 287.866 229.983 287.234 230.475 286.601C230.66 286.363 230.845 286.125 230.986 285.842C232.786 286.556 234.254 287.607 234.469 289.905C234.751 289.495 235.005 288.917 235.273 288.306C236.128 286.356 237.13 284.07 239.693 285.842ZM170.321 292.423C169.702 292.111 169.083 291.798 168.887 291.06C173.281 287.775 163.582 282.511 164.244 289.319C166.269 290.799 166.867 291.832 165.985 295.123C166.592 295.376 167.061 295.768 167.53 296.159C168.222 296.736 168.913 297.313 170.048 297.445C170.237 296.998 170.523 296.648 170.809 296.298C171.307 295.69 171.804 295.082 171.789 293.962C171.654 293.096 170.988 292.759 170.321 292.423ZM218.215 288.164L218.221 288.164C217.31 295.361 222.744 298.213 228.146 301.049C231.248 302.678 234.34 304.301 236.214 306.738C235.835 307.049 235.457 307.36 235.078 307.672L235.073 307.677L235.068 307.681C229.084 312.614 223.106 317.543 214.158 319.507C212.963 319.293 212.624 318.222 212.286 317.152C211.974 316.163 211.662 315.176 210.675 314.863C206.038 336.641 236.115 314.643 237.949 309.64C240.84 301.753 236.02 299.564 230.993 297.282C228.369 296.09 225.689 294.873 224.019 292.807C224.042 292.403 224.332 292.267 224.622 292.131C224.991 291.959 225.359 291.787 225.18 291.066C224.266 290.743 223.489 290.284 222.712 289.826C221.423 289.064 220.134 288.303 218.221 288.164L218.221 288.164H218.215ZM108.305 292.802C107.895 292.486 107.4 292.104 106.211 292.221C105.964 293.722 106.421 294.518 106.879 295.314C107.057 295.624 107.235 295.933 107.371 296.284C109.136 295.924 110.337 294.996 110.273 292.802C109.128 293.438 108.771 293.162 108.305 292.802ZM140.453 293.962C141.12 294.647 141.108 296.017 141.033 297.444C139.332 296.922 139.251 296.922 137.55 297.444C136.61 296.214 138.038 293.637 140.453 293.962ZM135.02 296.572C134.555 295.657 134.09 294.742 132.907 294.543C132.728 294.753 132.526 294.941 132.323 295.13C131.623 295.78 130.923 296.431 131.166 298.025C133.246 297.943 133.881 299.306 134.516 300.669C135.049 301.813 135.583 302.958 136.97 303.249C137.545 301.885 137.986 300.399 138.131 298.606C136.175 298.847 135.598 297.71 135.02 296.572ZM16.258 298.025V300.927C13.5364 300.587 13.1881 302.623 12.8397 304.659C12.6226 305.928 12.4055 307.197 11.6146 307.892C11.344 307.422 11.0836 306.943 10.8232 306.463C9.65372 304.31 8.48428 302.156 6.3908 300.927C6.1535 300.039 6.54431 299.78 6.93512 299.521C7.24211 299.317 7.5491 299.113 7.55165 298.605C9.79789 298.872 11.0806 300.108 11.0342 302.668C11.741 302.176 12.122 301.151 12.4969 300.143C13.1655 298.345 13.8145 296.6 16.258 298.025ZM21.4758 302.088C23.844 302.326 25.1383 301.49 24.9584 299.186C23.9326 299.436 23.1749 299.203 22.5561 299.013C21.8969 298.81 21.3954 298.656 20.8954 299.186C20.6368 300.068 20.8916 300.436 21.1463 300.804C21.3662 301.122 21.5861 301.44 21.4758 302.088ZM107.372 300.347C108.899 300.26 109.666 300.933 110.433 301.607C110.903 302.019 111.372 302.43 112.015 302.668C111.924 303.746 111.483 304.475 111.041 305.204C110.753 305.681 110.465 306.158 110.274 306.731C106.954 306.586 104.975 302.901 107.372 300.347ZM51.5159 301.836C51.2552 301.261 50.9945 300.685 49.9155 300.928C49.1989 301.634 49.8149 303.223 50.288 304.444L50.2881 304.444L50.2885 304.445L50.2887 304.446L50.2888 304.446L50.2894 304.447L50.2899 304.449L50.2902 304.449C50.3642 304.64 50.4347 304.822 50.496 304.99H52.8177C52.7519 304.425 52.9281 304.102 53.104 303.779C53.2695 303.475 53.4347 303.172 53.3981 302.669C52.08 303.082 51.798 302.459 51.5159 301.836ZM193.263 300.928H195.004C194.377 302.483 193.663 305.635 196.745 304.991C196.67 306.848 195.428 307.545 193.263 307.313C192.479 305.56 192.479 302.681 193.263 300.928ZM92.6994 308.913C92.9548 306.838 93.21 304.765 96.3438 305.571C96.129 299.256 90.2725 305.24 91.7004 307.312C90.9272 306.924 90.5237 306.167 90.1202 305.41C89.5149 304.274 88.9097 303.138 87.057 303.249C86.9552 303.699 86.729 304.024 86.5026 304.349C86.1738 304.822 85.8446 305.295 85.8961 306.151C87.9247 306.323 88.6767 307.771 89.4284 309.218C89.9994 310.318 90.5703 311.417 91.7004 311.956C92.4041 311.311 92.5518 310.112 92.6994 308.913ZM218.797 305.57C219.991 305.361 220.245 306.091 220.498 306.822C220.793 307.671 221.088 308.519 222.86 307.892C222.599 309.761 221.972 311.259 219.377 310.794C218.692 310.117 218.741 308.707 218.79 307.298V307.298V307.298V307.297V307.297V307.297V307.297V307.296V307.296V307.296C218.811 306.702 218.831 306.109 218.797 305.57ZM72.0477 311.489C72.3025 310.536 72.5706 309.532 71.3852 309.053C70.2417 311.143 70.0386 313.058 70.8048 316.018C72.9697 316.25 74.2118 315.554 74.2873 313.696C71.4118 313.87 71.7186 312.721 72.0477 311.489ZM201.388 314.277C201.465 315.45 200.624 315.705 199.784 315.96C199.289 316.111 198.794 316.261 198.486 316.599C199.423 318.048 199.926 317.601 200.63 316.974C201.21 316.459 201.925 315.822 203.13 316.018C202.975 318.101 201.745 319.111 200.516 320.121C199.302 321.117 198.087 322.115 197.906 324.144C198.83 325.224 199.802 325.063 201.09 324.851C201.977 324.704 203.015 324.533 204.29 324.725C203.53 327.981 197.83 328.207 196.165 325.886C196.025 323.425 196.211 321.289 197.906 320.662C197.717 320.214 197.431 319.865 197.145 319.515C196.647 318.907 196.15 318.299 196.165 317.179C196.443 316.906 196.777 316.453 197.146 315.952C198.399 314.254 200.062 312 201.388 314.277ZM239.112 318.92C239.785 318.432 240.667 318.154 242.014 318.339C240.632 310.933 234.457 321.422 237.37 324.144C237.64 324.005 237.934 323.86 238.242 323.707C240.803 322.437 244.377 320.666 243.755 318.339C243.084 318.339 242.41 318.805 241.776 319.243C240.716 319.976 239.765 320.634 239.112 318.92ZM60.9438 316.018C62.1883 316.091 62.9286 316.667 63.6688 317.244C64.2336 317.684 64.7984 318.124 65.5872 318.34C65.6278 320.511 64.6527 321.666 63.2655 322.403C62.2447 322.556 61.8867 322.048 61.5286 321.539C61.2473 321.14 60.966 320.741 60.3634 320.662C59.5705 320.77 59.3188 321.422 59.0674 322.074C58.9415 322.4 58.8157 322.726 58.6221 322.983C55.5458 322.589 53.1893 319.292 55.72 316.599C57.4903 316.57 58.6743 317.127 59.2025 318.34C59.3 318.282 59.3994 318.226 59.4989 318.169C60.2639 317.737 61.0311 317.302 60.9438 316.018ZM140.067 319.088C139.891 318.106 139.694 317.012 138.71 316.599C137.665 318.213 137.805 322.653 139.29 323.564C140.8 323.595 141.263 322.587 141.727 321.576C141.871 321.261 142.016 320.946 142.193 320.662C140.481 321.392 140.29 320.33 140.067 319.088ZM79.5104 318.34C75.894 323.134 67.1948 325.244 61.2924 326.676L61.2912 326.676L61.2825 326.678C60.7561 326.806 60.2521 326.928 59.776 327.047C62.7586 323.552 67.7577 322.075 72.7583 320.596C75.0755 319.911 77.3931 319.226 79.5104 318.34ZM249.552 321.822V319.501C247.743 320.484 245.789 321.322 243.835 322.161C239.02 324.227 234.205 326.292 231.559 330.529H233.88C238.588 327.104 243.823 324.214 249.552 321.822ZM9.29208 330.529H7.55081C10.0212 326.274 15.3017 324.827 20.5828 323.379L20.5829 323.379C22.8955 322.745 25.2083 322.111 27.2852 321.242C25.4273 324.528 21.4566 325.699 17.4857 326.87C14.4354 327.77 11.385 328.67 9.29208 330.529Z" fill="url(#paint0_linear_781_2645)"/>
<path fill-rule="evenodd" clip-rule="evenodd" d="M127.594 339.967L128.761 338.603L128.755 338.597L127.397 337.738C126.427 337.076 125.76 336.531 125.4 336.084L124.582 336.96L123.363 338.353L122.266 337.622C121.186 336.821 120.571 336.304 120.42 336.078L119.131 337.477C118.4 338.313 117.936 338.922 117.738 339.311C118.121 339.671 118.801 340.158 119.776 340.774L121.151 341.586L121.9 340.774L122.98 339.543C123.398 339.903 124.053 340.35 124.947 340.89L126.131 341.592L127.594 339.967ZM117.885 357.333H130.258L130.252 357.327V351.355H127.159L127.524 350.333L128.169 349.085C128.25 348.894 128.291 348.528 128.291 348C128.291 347.332 128.192 346.566 127.994 345.713C127.739 344.837 127.356 344.285 126.845 344.059C126.555 343.937 126.282 343.879 126.027 343.879C125.702 343.879 125.394 343.949 125.098 344.076C124.802 344.204 124.506 344.384 124.204 344.61C123.229 345.376 122.272 346.34 121.32 347.483C120.594 348.371 120.008 349.213 119.567 350.002C119.439 350.229 119.375 350.484 119.375 350.763L119.393 351.088L119.445 351.361H117.878V351.361H112.128L112.006 348.941L111.988 348.244L111.971 347.461L111.692 343.583L111.588 341.082L111.57 340.286L111.553 339.474L111.518 338.923L111.431 338.435L111.17 337.982L111.083 337.837C110.839 338.052 110.363 338.638 109.655 339.59C109.028 340.414 108.575 341.064 108.297 341.54L108.384 343.566L108.419 344.802L108.471 346.102L108.628 347.82C108.674 347.937 108.697 348.163 108.697 348.5L108.715 349.184V349.608L108.767 350.728L108.819 351.669L108.941 355.047L108.993 356.945C109.028 357.142 109.098 357.252 109.202 357.287C109.307 357.316 109.498 357.334 109.777 357.334H117.88H117.885V357.333ZM125.406 349.788C125.464 349.875 125.493 350.084 125.493 350.42H125.487L125.417 350.908C125.255 351.047 125.081 351.152 124.889 351.215C124.703 351.279 124.471 351.326 124.204 351.361L123.177 351.036L122.428 350.693C121.952 350.38 121.714 350.101 121.714 349.851C121.714 349.654 122.057 349.358 122.742 348.963C123.427 348.569 123.868 348.371 124.065 348.371C124.436 348.371 124.762 348.598 125.04 349.039L125.249 349.381L125.406 349.788ZM82.4607 339.805L81.294 341.169L79.8313 342.788L78.6473 342.092C77.7534 341.552 77.0975 341.099 76.6854 340.745L75.6059 341.981L74.8571 342.794L73.4815 341.981C72.4832 341.366 71.8041 340.878 71.4442 340.519C71.6416 340.13 72.1059 339.52 72.8372 338.684L74.1258 337.291C74.2535 337.506 74.8687 338.023 75.9657 338.835L77.0627 339.567L78.2816 338.174L79.1 337.297C79.4599 337.738 80.1274 338.29 81.0967 338.951L82.4549 339.81L82.4607 339.805ZM82.2343 349.509C82.2343 350.136 82.1937 350.635 82.1124 351.001C82.0428 351.599 81.9325 352.052 81.7816 352.365C81.5378 353.114 81.0851 354.054 80.4234 355.192C80.1796 355.615 79.6688 356.051 78.8911 356.509C77.9508 357.061 77.0337 357.339 76.1456 357.339H75.4665L74.9442 357.258C74.77 357.235 74.5437 357.154 74.2651 357.014C73.9284 356.898 73.5686 356.509 73.1855 355.848L73.081 355.441L73.0462 354.855C73.0462 353.961 73.3944 352.574 74.0909 350.699L74.4914 349.724L74.9616 348.784L75.1183 348.459L75.3621 348.053L75.9019 347.24C75.9019 346.665 76.2211 345.917 76.8596 344.999C77.4168 344.198 77.9101 343.647 78.3338 343.345C78.3687 343.409 78.6821 343.781 79.2741 344.448C80.1099 345.098 80.7484 345.748 81.2011 346.393C81.886 347.356 82.2285 348.395 82.2285 349.509H82.2343ZM78.4093 349.771C78.9083 350.235 79.2449 350.728 79.4191 351.244C79.2879 351.358 78.9823 351.467 78.5022 351.564C78.0146 351.663 77.5967 351.709 77.2485 351.709L76.848 351.692L76.4649 351.628C76.2211 351.564 76.0121 351.436 75.838 351.239C75.6755 351.024 75.5942 350.792 75.5942 350.543C75.5942 350.264 75.7452 349.904 76.047 349.475L76.4126 349.004L76.7783 348.633C77.5155 349.033 78.0611 349.411 78.4093 349.771ZM93.5287 357.333H90.5743C90.435 357.333 90.2435 357.304 89.9997 357.234L89.7385 357.153C89.6224 357.107 89.5353 357.066 89.4773 357.02C89.4077 357.356 89.3148 357.635 89.1987 357.867L88.8679 358.68L88.5544 359.411L88.1539 360.189C88.003 360.491 87.7418 360.909 87.3704 361.437C87.0918 361.849 86.7609 362.255 86.3778 362.656C86.1341 362.946 85.8206 363.19 85.4376 363.387C84.9732 363.637 84.5321 363.758 84.1142 363.758C83.4757 363.758 82.3323 363.312 80.6897 362.412C78.9194 361.437 77.8224 360.555 77.4045 359.765L77.509 359.637C77.5786 359.574 77.6599 359.533 77.7527 359.521C78.1706 359.736 78.6292 359.899 79.1283 360.009L79.8771 360.137L80.7303 360.183C81.4384 360.183 82.0014 360.096 82.4194 359.922C82.6167 359.858 82.8431 359.742 83.0984 359.579L83.4815 359.336L83.9343 359.011C84.8861 358.308 85.6523 357.618 86.2269 356.95L86.6448 356.399L86.9583 355.94C87.1324 355.679 87.2195 355.424 87.2195 355.162V354.982L87.1846 354.756L87.0802 354.338C87.0221 354.1 86.9583 353.926 86.8886 353.816C86.8306 353.642 86.7377 353.444 86.61 353.212L85.8787 351.866L85.4085 351.117L84.8513 350.304L85.1996 349.608L85.9309 348.342C86.4301 347.379 86.8306 346.74 87.1324 346.427L88.1249 348.116L88.9259 349.399C89.4715 350.223 89.9707 350.774 90.4234 351.053L90.6498 351.169L91.0503 351.285L91.799 351.349H93.5345V351.377H94.8924C94.8924 350.228 95.2638 348.87 96.0068 347.286C96.6336 345.956 97.098 345.184 97.3998 344.964L97.4172 344.279V343.925L97.5043 343.553L97.5739 343.263L97.7481 342.776L98.0441 341.928L98.3401 341.267L98.6013 340.779C99.9943 341.818 101.335 342.938 102.629 344.14C103.918 345.341 104.905 346.502 105.578 347.628C106.333 348.882 106.71 350.124 106.71 351.343H106.692C106.692 352.666 106.449 353.989 105.961 355.33C105.474 356.665 104.765 357.333 103.843 357.333H93.5342V357.322L93.5287 357.333ZM99.7215 348.551C99.9537 348.87 100.07 349.178 100.07 349.48H100.064C100.064 349.648 99.8318 349.967 99.3616 350.426C98.8915 350.884 98.6129 351.116 98.52 351.116C98.2995 351.116 97.9744 351.006 97.5449 350.791C97.0457 350.518 96.7962 350.257 96.7962 349.996C96.7962 349.805 97.0051 349.427 97.423 348.876C98.0847 348.261 98.4794 347.953 98.6071 347.953C99.0598 347.953 99.4313 348.15 99.7215 348.551ZM103.79 350.234C104.162 350.791 104.365 351.256 104.4 351.621V351.633L104.139 351.668H103.686L103.163 351.633L102.693 351.534L102.293 351.256L102.171 351.157L102.032 350.814L102.014 350.455C102.014 350.043 102.188 349.712 102.537 349.462C102.595 349.421 102.67 349.398 102.763 349.398C103.076 349.398 103.419 349.677 103.79 350.234ZM139.106 342.677L136.761 346.102L136.813 347.449L136.865 348.296L137.004 349.428L137.126 351.308V352.156L137.057 352.725L136.691 355.11C136.552 355.876 136.389 356.439 136.204 356.799C136.134 356.962 136.024 357.089 135.884 357.188C135.739 357.287 135.553 357.333 135.339 357.333H130.26V351.361H134.573L134.642 351.326L134.712 351.279L134.747 351.233C134.747 349.968 134.642 348.615 134.427 347.176C134.213 345.736 133.957 344.709 133.655 344.094L133.499 343.734C133.464 343.594 133.383 343.438 133.255 343.264C133.058 342.91 132.86 342.614 132.663 342.37C132.791 341.847 133.063 341.186 133.481 340.379C133.899 339.572 134.48 338.696 135.223 337.744L135.501 337.97L135.466 338.33V338.719L135.571 339.09C135.629 339.253 135.733 339.433 135.884 339.624L137.846 341.412L139.117 342.677H139.106ZM144.078 353.375C144.195 352.841 144.253 351.906 144.253 350.566H144.247L144.125 347.971L144.107 347.176L144.09 346.282L143.986 345.081L143.968 344.494L143.951 343.926L143.69 341.198L143.55 339.979L143.481 339.137V338.504L143.219 338.162L141.536 341.145L140.439 343.177L140.526 344.912L140.787 347.559L141.397 353.096C141.617 354.605 141.728 356.103 141.728 357.595L142.024 357.792L143.539 355.128C143.794 354.652 143.974 354.066 144.078 353.375ZM168.562 357.334H165.486C165.381 357.833 165.103 358.64 164.65 359.754L164.284 360.549L164.058 361.083L163.849 361.426C163.257 362.076 162.421 362.644 161.347 363.132C160.117 363.672 158.915 363.945 157.731 363.945C156.988 363.945 156.321 363.858 155.734 363.683L155.264 363.538L154.829 363.358L154.585 363.231L154.341 363.086L153.958 362.824C153.471 362.499 153.105 362.023 152.861 361.397L152.618 360.485L152.531 359.87V359.562L152.548 358.703L152.687 357.763L153.053 356.202C153.181 355.703 153.529 354.867 154.098 353.689C154.608 352.766 155.392 351.802 156.443 350.781L156.617 350.746C156.733 350.746 156.82 350.775 156.878 350.827L155.955 352.516C155.595 353.242 155.369 353.747 155.276 354.043L155.084 354.838L155.032 355.534C155.032 356.161 155.183 356.684 155.485 357.09C155.787 357.502 156.321 357.827 157.087 358.065L157.447 358.146L158.178 358.291L159.345 358.355H159.536L160.163 358.338H160.372L160.616 358.309L161.121 358.245C161.225 358.245 161.341 358.222 161.469 358.181C161.643 358.146 161.812 358.088 161.974 358.001C162.612 357.775 163.112 357.479 163.472 357.107C163.576 356.922 163.321 356.022 162.705 354.397L161.87 352.272L161.469 351.297L160.999 350.322L161.939 348.616C162.636 347.414 163.123 346.718 163.402 346.52C163.541 346.584 163.826 347.048 164.255 347.913L165.37 350.2C165.683 350.798 165.967 351.181 166.223 351.349H168.568V351.361H169.506L170.237 349.527C170.516 348.871 170.853 348.244 171.247 347.658C171.839 346.717 172.588 345.934 173.499 345.313C174.411 344.692 175.235 344.378 175.978 344.378L176.082 344.425L176.361 344.57L176.657 345.075L177.493 348.209L177.98 350.188L178.067 350.74L178.102 351.227L178.108 351.233L178.003 351.982C177.934 352.347 177.824 352.713 177.673 353.073L177.464 353.688L177.185 354.356C176.767 355.406 176.343 356.271 175.914 356.95L175.27 356.706L174.869 356.497L173.772 355.865L172.849 355.36L172.292 355L170.725 354.025L170.046 355.905C169.976 356.143 169.785 356.544 169.471 357.107C169.402 357.206 169.326 357.269 169.245 357.304L168.897 357.333H168.566V357.326L168.562 357.334ZM163.106 341.592L161.939 342.956L160.477 344.582L159.101 343.769C158.126 343.154 157.447 342.666 157.069 342.306C157.267 341.918 157.731 341.308 158.462 340.472L159.745 339.073C160.105 339.52 160.773 340.066 161.748 340.728L163.106 341.587V341.592ZM174.823 350.13V350.339L174.829 350.345L173.975 349.84L172.756 349.08C172.872 348.876 173.035 348.702 173.25 348.569C173.465 348.435 173.673 348.366 173.882 348.366C174.022 348.366 174.138 348.401 174.231 348.464C174.405 348.592 174.544 348.853 174.649 349.242L174.753 349.55C174.776 349.59 174.788 349.683 174.788 349.823L174.823 350.13Z" fill="url(#paint1_linear_781_2645)"/>
<path fill-rule="evenodd" clip-rule="evenodd" d="M125.31 241.77H123.802C105.541 239.785 100.299 219.805 88.1229 214.634C78.6804 210.624 67.2479 214.594 56.9662 213.629C47.6594 212.755 41.3527 208.468 38.3727 201.568C33.3877 190.015 39.8552 174.608 35.3576 162.371C31.0861 150.748 14.759 145.34 9.72868 132.722C0.356546 109.224 30.1715 101.168 35.3576 87.4946C39.227 77.2933 33.3676 60.2073 37.8702 48.8C40.9708 40.9505 46.5137 37.272 58.9763 36.2368V46.7899C37.9757 46.7145 51.3982 73.1323 45.4081 90.5097C43.0714 97.2938 36.7295 102.977 31.8399 107.596C27.3121 111.872 18.533 117.149 18.7742 125.184C19.0154 133.25 27.4578 138.184 31.3374 141.768C36.1767 146.235 42.2874 151.436 44.9056 157.848C48.5288 166.733 43.197 192.679 49.4283 199.558C56.328 207.176 79.7106 200.01 90.6356 204.081C97.6609 206.699 103.128 213.106 108.224 218.654C111.867 222.619 116.435 230.961 125.31 230.715C132.873 230.504 138.391 222.524 141.893 218.654C146.255 213.83 150.743 207.89 156.969 205.086C168.487 199.9 193.397 206.98 200.186 199.558C206.538 192.613 201.176 176.437 202.699 164.884C204.262 153.009 212.363 147.602 219.283 141.265C222.986 137.873 230.886 132.456 230.841 124.682C230.8 117.983 222.348 111.445 218.78 108.098C213.931 103.55 208.031 98.8065 205.212 92.5198C201.548 84.3437 203.694 71.1474 203.202 60.3581C202.227 39.061 179.256 50.4483 161.492 46.2873C152.592 44.2018 146.275 36.5484 140.888 30.709C136.908 26.3973 131.476 18.3719 124.305 18.6483C117.486 18.9147 109.46 29.0506 105.209 33.7241C99.0881 40.448 94.3141 45.9155 83.6002 46.7899C82.5147 44.3576 83.369 39.9856 83.0977 36.7393C101.797 32.5683 103.289 7.52741 125.31 8.09526C144.486 8.59276 149.074 31.7241 163.502 35.7343C175.739 39.1364 188.548 33.9503 199.181 37.2418C205.111 39.0761 208.966 42.6792 211.242 47.7949C215.755 57.9409 210.011 76.4289 214.257 87.4946C216.79 94.0877 224.152 98.3542 229.333 103.073C234.595 107.862 240.399 114.43 241.394 121.666C244.349 143.19 219.122 148.994 214.257 162.371C209.142 176.437 217.016 187.97 211.745 201.066C209.523 206.583 204.619 210.433 199.684 212.121C188.412 215.976 174.784 209.865 162.497 214.131C149.12 218.775 144.376 240.61 125.31 241.77Z" fill="url(#paint2_linear_781_2645)"/>
<path fill-rule="evenodd" clip-rule="evenodd" d="M71.3544 0.0551758C71.3544 0.0551758 61.8064 7.84435 61.8064 22.4176H80.6512C80.6512 22.4176 81.0281 9.35193 71.3544 0.0551758Z" fill="url(#paint3_linear_781_2645)"/>
<path fill-rule="evenodd" clip-rule="evenodd" d="M82.4105 25.6848H60.048C58.7967 25.6848 57.7866 26.6948 57.7866 27.9461C57.7866 29.1974 58.7967 30.2075 60.048 30.2075H60.9274V119.406H81.531V30.2075H82.4105C83.6567 30.2075 84.6718 29.1974 84.6718 27.9461C84.6718 26.6948 83.6567 25.6848 82.4105 25.6848ZM69.1789 105.084C69.1789 105.918 68.5055 106.592 67.6713 106.592C66.8371 106.592 66.1637 105.918 66.1637 105.084V45.2833C66.1637 44.4491 66.8371 43.7757 67.6713 43.7757C68.5055 43.7757 69.1789 44.4491 69.1789 45.2833V105.084ZM76.2997 105.084C76.2997 105.918 75.6263 106.592 74.7921 106.592C73.9579 106.592 73.2846 105.918 73.2846 105.084V45.2833C73.2846 44.4491 73.9579 43.7757 74.7921 43.7757C75.6263 43.7757 76.2997 44.4491 76.2997 45.2833V105.084Z" fill="url(#paint4_linear_781_2645)"/>
<path fill-rule="evenodd" clip-rule="evenodd" d="M155.045 105.42C140.497 93.7713 140.201 94.8115 137.246 87.6153H137.517V75.5296C137.708 75.5396 137.904 75.5497 138.1 75.5497C140.658 75.5497 142.99 74.5094 144.774 72.7958C143.995 72.9566 143.186 73.0471 142.356 73.0471C136.447 73.0471 131.653 68.7907 131.653 63.5393C131.653 58.2878 136.115 54.348 141.733 54.0616C140.603 53.5892 139.381 53.3229 138.1 53.3229C132.502 53.3229 127.964 58.2979 127.964 64.4338C127.964 69.4741 131.029 73.7305 135.226 75.0924V87.6153H135.427C134.743 89.5249 131.256 97.2588 117.255 105.586C101.415 115.008 76.1484 136.994 76.3042 165.552H194.318C194.318 165.552 198.609 134.898 155.045 105.415V105.42Z" fill="url(#paint5_linear_781_2645)"/>
<path fill-rule="evenodd" clip-rule="evenodd" d="M135.23 75.0924V77.9819H137.522V75.5296C137.713 75.5396 137.909 75.5497 138.105 75.5497C140.663 75.5497 142.994 74.5094 144.778 72.7958C143.999 72.9566 143.19 73.0471 142.361 73.0471C136.451 73.0471 131.657 68.7907 131.657 63.5393C131.657 58.2878 136.12 54.348 141.738 54.0616C140.607 53.5842 139.386 53.3229 138.105 53.3229C132.507 53.3229 127.969 58.2979 127.969 64.4338C127.969 69.4741 131.034 73.7305 135.23 75.0873V75.0924Z" fill="url(#paint6_linear_781_2645)"/>
<path fill-rule="evenodd" clip-rule="evenodd" d="M194.126 191.784V166.894H77.4388C76.9815 166.894 76.6097 166.884 76.2931 166.859V195.844C76.2931 196.603 75.6197 197.216 74.7855 197.216C73.9513 197.216 73.2779 196.603 73.2779 195.844V141.446C73.2779 140.687 73.9513 140.074 74.7855 140.074C75.6197 140.074 76.2931 140.687 76.2931 141.446V150.386C77.5142 145.738 79.3133 141.32 81.5294 137.179C81.5294 137.179 87.5899 126.913 87.5899 126.094C87.5899 123.822 86.3486 121.978 84.8159 121.978H57.3679C55.8352 121.978 54.594 123.817 54.594 126.094C54.594 128.37 55.8352 130.209 57.3679 130.209H57.785V189.327C57.9207 189.387 58.0513 189.452 58.187 189.513C58.0513 189.452 57.9157 189.387 57.785 189.327C51.5336 186.402 49.232 184.98 49.232 184.98C49.232 184.98 44.458 201.438 62.9259 200.809C81.3937 200.181 91.5699 196.035 108.53 215.885C119.46 226.564 123.229 233.348 132.275 224.805C141.32 216.262 149.989 200.558 167.452 200.809C184.914 201.061 198.859 204.202 200.116 193.523C198.513 192.98 196.633 192.302 194.126 191.779V191.784ZM69.1723 192.618C69.1723 193.332 68.4989 193.91 67.6647 193.91C66.8305 193.91 66.1571 193.332 66.1571 192.618V141.361C66.1571 140.647 66.8305 140.069 67.6647 140.069C68.4989 140.069 69.1723 140.647 69.1723 141.361V192.618ZM102.384 200.066C102.384 200.85 102.249 201.603 102.012 202.307C97.3088 201.789 92.7408 200.799 88.3135 199.221V185.241C88.3135 181.357 91.4644 178.206 95.3489 178.206C99.2334 178.206 102.384 181.357 102.384 185.241V200.066ZM129.772 200.066C129.772 200.382 129.742 200.694 129.702 201C125.093 201.759 120.581 202.307 116.169 202.573C115.867 201.794 115.696 200.95 115.696 200.061V185.236C115.696 181.352 118.847 178.201 122.732 178.201C126.616 178.201 129.767 181.352 129.767 185.236V200.061L129.772 200.066ZM157.411 194.774C156.255 195.091 155.089 195.422 153.893 195.794C150.33 196.679 146.813 197.523 143.34 198.302V185.241C143.34 181.357 146.491 178.206 150.376 178.206C154.26 178.206 157.411 181.357 157.411 185.241V194.774ZM183.04 191.272C178.974 191.211 174.266 191.473 168.969 192.282V185.241C168.969 181.357 172.12 178.206 176.005 178.206C179.889 178.206 183.04 181.357 183.04 185.241V191.272Z" fill="url(#paint7_linear_781_2645)"/>
<path fill-rule="evenodd" clip-rule="evenodd" d="M105.124 51.8148C95.2793 61.7096 95.2693 93.4542 104.621 105.585C99.0483 92.5647 97.2292 65.4434 105.124 51.8148Z" fill="url(#paint8_linear_781_2645)"/>
<path fill-rule="evenodd" clip-rule="evenodd" d="M110.653 55.8351C101.849 64.2926 101.799 90.9014 110.151 101.565C105.407 90.5195 103.568 67.4535 110.653 55.8351Z" fill="url(#paint9_linear_781_2645)"/>
<path fill-rule="evenodd" clip-rule="evenodd" d="M114.674 97.0423C111.84 88.4491 109.649 69.9712 115.177 60.8604C114.212 59.9458 112.554 64.3379 111.659 66.8907C108.488 75.9362 109.81 89.8311 114.674 97.0423Z" fill="url(#paint10_linear_781_2645)"/>
<path fill-rule="evenodd" clip-rule="evenodd" d="M119.699 64.3787C114.186 70.8261 114.714 86.4296 119.699 93.0228C117.357 86.0376 116.206 72.6905 119.699 64.3787Z" fill="url(#paint11_linear_781_2645)"/>
<path fill-rule="evenodd" clip-rule="evenodd" d="M123.715 68.9014C119.664 72.9367 120.167 83.2737 123.212 87.9974C122.81 83.0375 121.498 74.595 123.715 68.9014Z" fill="url(#paint12_linear_781_2645)"/>
<path fill-rule="evenodd" clip-rule="evenodd" d="M126.733 85.4848C126.959 83.2235 125.125 76.3238 127.235 73.4242C124.833 72.5498 123.858 82.8365 126.733 85.4848Z" fill="url(#paint13_linear_781_2645)"/>
<path fill-rule="evenodd" clip-rule="evenodd" d="M167.525 105.585C176.877 93.4542 176.867 61.7096 167.023 51.8148C174.917 65.4434 173.098 92.5647 167.525 105.585Z" fill="url(#paint14_linear_781_2645)"/>
<path fill-rule="evenodd" clip-rule="evenodd" d="M161.996 101.565C170.348 90.9014 170.298 64.2926 161.494 55.8351C168.579 67.4535 166.74 90.5195 161.996 101.565Z" fill="url(#paint15_linear_781_2645)"/>
<path fill-rule="evenodd" clip-rule="evenodd" d="M160.486 66.8907C159.591 64.3379 157.933 59.9458 156.968 60.8604C162.496 69.9712 160.305 88.4491 157.471 97.0423C162.335 89.8311 163.657 75.9362 160.486 66.8907Z" fill="url(#paint16_linear_781_2645)"/>
<path fill-rule="evenodd" clip-rule="evenodd" d="M152.447 93.0228C157.432 86.4296 157.96 70.8261 152.447 64.3787C155.94 72.6905 154.789 86.0376 152.447 93.0228Z" fill="url(#paint17_linear_781_2645)"/>
<path fill-rule="evenodd" clip-rule="evenodd" d="M148.929 87.9974C151.974 83.2737 152.476 72.9367 148.426 68.9014C150.642 74.595 149.331 83.0375 148.929 87.9974Z" fill="url(#paint18_linear_781_2645)"/>
<path fill-rule="evenodd" clip-rule="evenodd" d="M144.912 73.4242C147.023 76.3238 145.188 83.2235 145.415 85.4848C148.289 82.8365 147.314 72.5498 144.912 73.4242Z" fill="url(#paint19_linear_781_2645)"/>
<defs>
<linearGradient id="paint0_linear_781_2645" x1="261.186" y1="303.415" x2="-106.531" y2="303.415" gradientUnits="userSpaceOnUse">
<stop stop-color="#F3C955"/>
<stop offset="0.515625" stop-color="#D1A93B"/>
<stop offset="0.989583" stop-color="#FFBB00"/>
</linearGradient>
<linearGradient id="paint1_linear_781_2645" x1="183.081" y1="353.614" x2="25.9105" y2="353.614" gradientUnits="userSpaceOnUse">
<stop stop-color="#F3C955"/>
<stop offset="0.515625" stop-color="#D1A93B"/>
<stop offset="0.989583" stop-color="#FFBB00"/>
</linearGradient>
<linearGradient id="paint2_linear_781_2645" x1="252.53" y1="155.137" x2="-91.8521" y2="155.137" gradientUnits="userSpaceOnUse">
<stop stop-color="#F3C955"/>
<stop offset="0.515625" stop-color="#D1A93B"/>
<stop offset="0.989583" stop-color="#FFBB00"/>
</linearGradient>
<linearGradient id="paint3_linear_781_2645" x1="81.5318" y1="14.1273" x2="53.7609" y2="14.1273" gradientUnits="userSpaceOnUse">
<stop stop-color="#F3C955"/>
<stop offset="0.515625" stop-color="#D1A93B"/>
<stop offset="0.989583" stop-color="#FFBB00"/>
</linearGradient>
<linearGradient id="paint4_linear_781_2645" x1="85.9253" y1="84.6611" x2="46.3096" y2="84.6611" gradientUnits="userSpaceOnUse">
<stop stop-color="#F3C955"/>
<stop offset="0.515625" stop-color="#D1A93B"/>
<stop offset="0.989583" stop-color="#FFBB00"/>
</linearGradient>
<linearGradient id="paint5_linear_781_2645" x1="199.941" y1="123.946" x2="25.8748" y2="123.946" gradientUnits="userSpaceOnUse">
<stop stop-color="#F3C955"/>
<stop offset="0.515625" stop-color="#D1A93B"/>
<stop offset="0.989583" stop-color="#FFBB00"/>
</linearGradient>
<linearGradient id="paint6_linear_781_2645" x1="145.562" y1="68.8401" x2="120.793" y2="68.8401" gradientUnits="userSpaceOnUse">
<stop stop-color="#F3C955"/>
<stop offset="0.515625" stop-color="#D1A93B"/>
<stop offset="0.989583" stop-color="#FFBB00"/>
</linearGradient>
<linearGradient id="paint7_linear_781_2645" x1="207.176" y1="189.118" x2="-15.9699" y2="189.118" gradientUnits="userSpaceOnUse">
<stop stop-color="#F3C955"/>
<stop offset="0.515625" stop-color="#D1A93B"/>
<stop offset="0.989583" stop-color="#FFBB00"/>
</linearGradient>
<linearGradient id="paint8_linear_781_2645" x1="105.471" y1="85.6511" x2="94.4917" y2="85.6511" gradientUnits="userSpaceOnUse">
<stop stop-color="#F3C955"/>
<stop offset="0.515625" stop-color="#D1A93B"/>
<stop offset="0.989583" stop-color="#FFBB00"/>
</linearGradient>
<linearGradient id="paint9_linear_781_2645" x1="110.965" y1="84.6118" x2="101.112" y2="84.6118" gradientUnits="userSpaceOnUse">
<stop stop-color="#F3C955"/>
<stop offset="0.515625" stop-color="#D1A93B"/>
<stop offset="0.989583" stop-color="#FFBB00"/>
</linearGradient>
<linearGradient id="paint10_linear_781_2645" x1="115.421" y1="83.583" x2="107.699" y2="83.583" gradientUnits="userSpaceOnUse">
<stop stop-color="#F3C955"/>
<stop offset="0.515625" stop-color="#D1A93B"/>
<stop offset="0.989583" stop-color="#FFBB00"/>
</linearGradient>
<linearGradient id="paint11_linear_781_2645" x1="119.882" y1="82.4037" x2="114.078" y2="82.4037" gradientUnits="userSpaceOnUse">
<stop stop-color="#F3C955"/>
<stop offset="0.515625" stop-color="#D1A93B"/>
<stop offset="0.989583" stop-color="#FFBB00"/>
</linearGradient>
<linearGradient id="paint12_linear_781_2645" x1="123.85" y1="80.918" x2="119.559" y2="80.918" gradientUnits="userSpaceOnUse">
<stop stop-color="#F3C955"/>
<stop offset="0.515625" stop-color="#D1A93B"/>
<stop offset="0.989583" stop-color="#FFBB00"/>
</linearGradient>
<linearGradient id="paint13_linear_781_2645" x1="127.341" y1="80.9941" x2="123.999" y2="80.9941" gradientUnits="userSpaceOnUse">
<stop stop-color="#F3C955"/>
<stop offset="0.515625" stop-color="#D1A93B"/>
<stop offset="0.989583" stop-color="#FFBB00"/>
</linearGradient>
<linearGradient id="paint14_linear_781_2645" x1="174.821" y1="85.6511" x2="163.842" y2="85.6511" gradientUnits="userSpaceOnUse">
<stop stop-color="#F3C955"/>
<stop offset="0.515625" stop-color="#D1A93B"/>
<stop offset="0.989583" stop-color="#FFBB00"/>
</linearGradient>
<linearGradient id="paint15_linear_781_2645" x1="168.492" y1="84.6118" x2="158.639" y2="84.6118" gradientUnits="userSpaceOnUse">
<stop stop-color="#F3C955"/>
<stop offset="0.515625" stop-color="#D1A93B"/>
<stop offset="0.989583" stop-color="#FFBB00"/>
</linearGradient>
<linearGradient id="paint16_linear_781_2645" x1="162.453" y1="83.583" x2="154.731" y2="83.583" gradientUnits="userSpaceOnUse">
<stop stop-color="#F3C955"/>
<stop offset="0.515625" stop-color="#D1A93B"/>
<stop offset="0.989583" stop-color="#FFBB00"/>
</linearGradient>
<linearGradient id="paint17_linear_781_2645" x1="156.57" y1="82.4037" x2="150.765" y2="82.4037" gradientUnits="userSpaceOnUse">
<stop stop-color="#F3C955"/>
<stop offset="0.515625" stop-color="#D1A93B"/>
<stop offset="0.989583" stop-color="#FFBB00"/>
</linearGradient>
<linearGradient id="paint18_linear_781_2645" x1="151.474" y1="80.918" x2="147.183" y2="80.918" gradientUnits="userSpaceOnUse">
<stop stop-color="#F3C955"/>
<stop offset="0.515625" stop-color="#D1A93B"/>
<stop offset="0.989583" stop-color="#FFBB00"/>
</linearGradient>
<linearGradient id="paint19_linear_781_2645" x1="147.286" y1="80.9941" x2="143.944" y2="80.9941" gradientUnits="userSpaceOnUse">
<stop stop-color="#F3C955"/>
<stop offset="0.515625" stop-color="#D1A93B"/>
<stop offset="0.989583" stop-color="#FFBB00"/>
</linearGradient>
</defs>
</svg>
